Coordinates
version=1
nRows=7
nColumns=40
inDegrees=yes

Units are S.I. units (second, meters, Newtons, ...)
Angles are in degrees.

endheader
time	pelvis_tilt	pelvis_list	pelvis_rotation	pelvis_tx	pelvis_ty	pelvis_tz	hip_flexion_r	hip_adduction_r	hip_rotation_r	knee_angle_r	knee_angle_r_beta	ankle_angle_r	subtalar_angle_r	mtp_angle_r	hip_flexion_l	hip_adduction_l	hip_rotation_l	knee_angle_l	knee_angle_l_beta	ankle_angle_l	subtalar_angle_l	mtp_angle_l	lumbar_extension	lumbar_bending	lumbar_rotation	arm_flex_r	arm_add_r	arm_rot_r	elbow_flex_r	pro_sup_r	wrist_flex_r	wrist_dev_r	arm_flex_l	arm_add_l	arm_rot_l	elbow_flex_l	pro_sup_l	wrist_flex_l	wrist_dev_l
     58.63628571	     -5.43923753	     -5.00079568	     -1.75845473	      1.07672972	      0.93339855	      0.43222709	     36.71017675	     -5.40605678	     -6.79406825	     57.21219118	     57.21219118	     -0.14136990	    -15.49051986	      2.93746273	     12.15974935	     -5.19077995	     -9.49988109	     19.23656665	     19.23656665	     14.22350325	    -10.91066022	      0.01368912	    -11.77005684	      7.78504358	      2.38439081	     10.84687505	    -12.40232447	     -8.93386958	     32.44297815	     46.82064573	      0.00000000	      0.00000000	     17.45389677	    -14.72052508	     -0.56075020	     55.81161725	     46.64355367	      0.00000000	      0.00000000
     58.64757143	     -5.44614184	     -4.90496192	     -2.05350428	      1.07578297	      0.93336649	      0.43229201	     37.09565495	     -5.25114224	     -6.96657664	     53.77360725	     53.77360725	     -0.22624412	    -14.65489128	      2.43388936	     11.17573315	     -5.04740499	     -9.88368265	     18.55700802	     18.55700802	     14.45156499	    -10.61958015	     -0.37749315	    -11.86910928	      7.81103674	      2.48059213	      9.49790717	    -12.51290313	     -8.93991225	     29.01484477	     46.93856214	      0.00000000	      0.00000000	     18.57686799	    -15.20689072	     -1.11947557	     58.39113665	     46.73997112	      0.00000000	      0.00000000
     58.65885714	     -5.43468943	     -4.93670653	     -2.29639888	      1.07502251	      0.93336928	      0.43244039	     37.16981723	     -4.97877544	     -7.36348197	     49.90336231	     49.90336231	     -0.18082014	    -13.48054263	      2.35574231	     10.14732866	     -5.02509898	    -10.16872047	     17.83465411	     17.83465411	     14.71832676	    -10.35254044	     -0.56032085	    -11.99470640	      7.98439080	      2.47580798	      7.67148582	    -12.71696610	     -8.97981910	     27.10995723	     47.00212188	      0.00000000	      0.00000000	     19.79111393	    -15.63297100	     -1.63740699	     60.28595846	     46.81968263	      0.00000000	      0.00000000
     58.67014286	     -5.41855587	     -4.80146658	     -2.53200436	      1.07444908	      0.93311701	      0.43267187	     37.06300272	     -4.81931119	     -7.70074906	     45.77572937	     45.77572937	     -0.07254363	    -12.05539180	      2.01899940	      9.07397245	     -4.82237469	    -10.56773655	     17.05593085	     17.05593085	     14.95013188	     -9.96166480	     -0.88380979	    -12.11406451	      7.92554368	      2.62330876	      5.77657314	    -12.88781393	     -9.06800017	     25.07006833	     47.07708273	      0.00000000	      0.00000000	     20.90741922	    -16.01761612	     -2.28217379	     62.85052011	     46.91904516	      0.00000000	      0.00000000
     58.68142857	     -5.49109395	     -4.64308222	     -2.68640262	      1.07403725	      0.93247735	      0.43291187	     36.72620395	     -4.64037721	     -8.12916931	     41.14453568	     41.14453568	     -0.87747768	    -10.95538688	     -0.84027324	      8.08321196	     -4.57835036	    -10.87182249	     16.20624040	     16.20624040	     14.81077153	     -9.74817258	     -2.10912770	    -12.07373220	      7.84182403	      1.44435977	      5.32999820	    -12.57263917	    -10.12123609	     21.38879202	     47.32559063	      0.00000000	      0.00000000	     20.46821883	    -16.99724855	     -4.52369072	     67.35916547	     47.19755007	      0.00000000	      0.00000000
     58.69271429	     -5.53424473	     -4.54775374	     -2.77983086	      1.07387026	      0.93178320	      0.43323627	     36.20903619	     -4.36428820	     -8.63869294	     36.51061893	     36.51061893	     -0.56290039	     -9.10610552	     -0.37928948	      7.10837617	     -4.41544280	    -11.13159571	     15.50780492	     15.50780492	     15.16727632	     -9.28107861	     -2.29881355	    -12.00718684	      7.86852213	      1.42437973	      3.05100159	    -12.81342514	    -10.27703447	     20.58002579	     47.35409017	      0.00000000	      0.00000000	     21.63711037	    -17.35596424	     -4.88344634	     69.02028556	     47.26022499	      0.00000000	      0.00000000
     58.70400000	     -5.50370008	     -4.34351137	     -2.85940267	      1.07401795	      0.93090219	      0.43364534	     35.45914616	     -4.17569547	     -9.22162459	     31.85467529	     31.85467529	     -0.15660462	     -6.90677690	      0.17235815	      6.00295723	     -4.13756893	    -11.51084582	     14.74413379	     14.74413379	     15.50075777	     -8.62912916	     -2.61664935	    -12.02348998	      7.72281058	      1.49796762	      0.62975844	    -12.96289991	    -10.52034376	     19.99445049	     47.37960353	      0.00000000	      0.00000000	     22.69114216	    -17.69288410	     -5.31001730	     71.29263514	     47.33747335	      0.00000000	      0.00000000
